<svg xmlns="http://www.w3.org/2000/svg" version="1.1" style="display: block;" preserveAspectRatio="none" viewBox="11.55 8.84 2025.4 1959.31"><path transform="translate(0,0)" fill="rgb(12,29,47)" d="M 430.467 209.165 C 506.634 154.092 568.144 116.004 656.088 81.2422 C 858.764 -0.977445 1083.01 -13.5596 1293.61 45.4711 C 1319.93 53.0594 1363.84 65.0634 1387.66 76.5432 C 1436.94 100.288 1491.61 122.938 1538.42 150.364 C 1555.4 160.456 1572.05 171.083 1588.36 182.229 C 1598.92 189.41 1616.64 202.975 1627.62 207.351 C 1719.03 156.142 1804.57 168.044 1866.21 260.903 C 1886.55 291.547 1894.78 348.221 1884.46 383.916 C 1880.85 396.091 1876.31 407.966 1870.86 419.434 C 1869.41 422.488 1862.51 434.975 1862.51 437.36 C 1866.24 444.957 1872.07 452.983 1876.68 460.21 L 1901.92 500.327 C 1918.39 526.829 1937.19 562.976 1950.21 591.233 C 1966.2 626.688 1980.03 663.083 1991.6 700.217 C 2054.44 896.851 2050.85 1097.82 1987.83 1293.83 C 1911.97 1529.83 1717.02 1738.46 1498.46 1850.61 C 1235.8 1985.4 973.467 2002.08 692.864 1911.84 C 665.331 1902.98 638.505 1891.02 612.187 1879.09 C 573.517 1861.55 534.861 1842.52 498.407 1820.67 C 471.864 1804.77 446.643 1786.48 421.731 1768.16 C 360.514 1723.16 302.721 1674.99 252.008 1618.14 C 199.926 1558.77 155.237 1493.3 118.92 1423.17 C 0.883005 1192.64 -20.9078 950.729 58.8858 704.122 C 80.2615 638.059 107.413 572.906 143.479 513.407 C 153.922 496.4 164.723 479.616 175.875 463.065 C 180.644 456.096 187.27 447.67 191.577 440.993 C 189.219 438.138 186.284 432.153 184.152 428.753 C 153.625 380.055 154.704 309.824 183.339 260.277 C 204.22 224.148 240.204 192.518 281.868 181.499 C 339.079 166.369 380.991 180.386 430.467 209.165 z"/><path transform="translate(0,0)" fill="rgb(230,233,235)" d="M 1862.51 437.36 C 1866.24 444.957 1872.07 452.983 1876.68 460.21 L 1901.92 500.327 C 1918.39 526.829 1937.19 562.976 1950.21 591.233 C 1966.2 626.688 1980.03 663.083 1991.6 700.217 C 2054.44 896.851 2050.85 1097.82 1987.83 1293.83 C 1911.97 1529.83 1717.02 1738.46 1498.46 1850.61 C 1235.8 1985.4 973.467 2002.08 692.864 1911.84 C 665.331 1902.98 638.505 1891.02 612.187 1879.09 C 573.517 1861.55 534.861 1842.52 498.407 1820.67 C 471.864 1804.77 446.643 1786.48 421.731 1768.16 C 360.514 1723.16 302.721 1674.99 252.008 1618.14 C 199.926 1558.77 155.237 1493.3 118.92 1423.17 C 0.883005 1192.64 -20.9078 950.729 58.8858 704.122 C 80.2615 638.059 107.413 572.906 143.479 513.407 C 153.922 496.4 164.723 479.616 175.875 463.065 C 180.644 456.096 187.27 447.67 191.577 440.993 C 195.085 444.197 224.329 474.157 226.362 477.286 C 221.11 482.558 200.786 514.663 196.304 521.919 C 139.316 615.078 99.5983 717.753 79.0581 825.012 C 35.1792 1056.9 84.6986 1296.74 216.832 1492.28 C 358.531 1702.07 594.396 1851.27 842.214 1898.91 C 1099.07 1948.23 1364.97 1892.69 1580.61 1744.69 C 1781.21 1608.63 1924.28 1405.11 1970 1165.86 C 2016.71 926.005 1964.86 677.449 1826.15 476.275 C 1837.31 464.175 1852.32 449.741 1862.51 437.36 z"/><path transform="translate(0,0)" fill="rgb(237,172,48)" d="M 191.577 440.993 C 189.219 438.138 186.284 432.153 184.152 428.753 C 153.625 380.055 154.704 309.824 183.339 260.277 C 204.22 224.148 240.204 192.518 281.868 181.499 C 339.079 166.369 380.991 180.386 430.467 209.165 L 429.81 209.914 C 439.49 221.163 453.761 235.163 464.23 246.035 C 505.187 311.87 506.735 374.159 464.914 440.109 L 476.51 449.412 C 515.922 439.526 493.961 469.383 509.964 484.189 C 515.458 489.272 524.515 492.121 527.136 499.969 C 526.772 503.091 527.025 502.74 525.966 505.575 C 527.51 511.259 529.212 516.94 530.187 522.737 C 534.266 530.262 579.028 573.642 588.588 583.798 C 577.363 595.892 565.671 609.659 554.605 622.062 C 538.393 608.338 519.442 590.146 504.727 575.475 C 492.356 563.141 496.694 558.794 499.115 544.975 C 499.448 543.071 498.207 540.442 496.347 539.094 C 488.479 533.393 469.9 540.254 460.137 540.777 C 452.416 541.19 444.687 542.96 438.017 537.322 C 425.576 526.805 439.734 517.596 438.554 505.931 C 437.889 499.349 429.367 493.474 424.784 489.105 C 422.578 487.001 420.836 486.326 418.019 487.086 C 409.625 489.349 401.03 493.724 392.991 497.078 C 376.605 504.081 359.251 508.556 341.522 510.348 C 304.32 513.959 255.058 500.779 226.362 477.286 C 224.329 474.157 195.085 444.197 191.577 440.993 z"/><path transform="translate(0,0)" fill="rgb(242,216,171)" d="M 476.51 449.412 C 515.922 439.526 493.961 469.383 509.964 484.189 C 515.458 489.272 524.515 492.121 527.136 499.969 C 526.772 503.091 527.025 502.74 525.966 505.575 C 523.176 507.21 522.255 508.033 519 508.341 C 498.935 502.745 501.547 482.097 494.993 467.25 C 492.2 460.923 478.541 460.182 474.317 457.367 C 475.033 454.711 475.764 452.059 476.51 449.412 z"/><path transform="translate(0,0)" fill="rgb(12,29,47)" d="M 233.41 423.716 C 190.824 371.844 197.525 295.442 248.49 251.774 C 299.455 208.107 375.98 213.198 420.711 263.233 C 465.442 313.267 461.962 389.883 412.88 435.657 C 363.798 481.431 287.126 479.564 240.329 431.456 C 237.915 428.974 235.607 426.392 233.41 423.716 z"/><path transform="translate(0,0)" fill="rgb(230,233,235)" d="M 239.412 416.963 C 200.859 368.319 208.315 297.77 256.185 258.26 C 304.055 218.75 374.738 224.806 415.19 271.883 C 455.641 318.96 450.988 389.749 404.723 431.126 C 358.457 472.503 287.589 469.255 245.303 423.819 C 243.249 421.613 241.284 419.326 239.412 416.963 z"/><path transform="translate(0,0)" fill="rgb(12,29,47)" d="M 322.124 278.192 C 357.447 275.103 389.205 306.01 370.864 340.572 C 366.536 348.727 358.402 357.387 357.369 366.658 C 356.056 378.442 371.454 409.382 364.419 418.466 C 357.078 422.109 345.095 420.845 336.5 420.664 C 325.312 420.678 312.778 421.652 301.723 420.249 C 298.411 419.828 294.102 418.923 292.213 415.875 C 288.653 410.132 299.116 371.353 300.717 363.087 C 294.093 353.274 284.781 343.429 282.575 331.796 C 277.202 303.453 295.946 283.612 322.124 278.192 z"/><path transform="translate(0,0)" fill="rgb(230,233,235)" d="M 239.412 416.963 C 241.284 419.326 243.249 421.613 245.303 423.819 L 240.329 431.456 C 237.915 428.974 235.607 426.392 233.41 423.716 L 239.412 416.963 z"/><path transform="translate(0,0)" fill="rgb(237,172,48)" d="M 1627.62 207.351 C 1719.03 156.142 1804.57 168.044 1866.21 260.903 C 1886.55 291.547 1894.78 348.221 1884.46 383.916 C 1880.85 396.091 1876.31 407.966 1870.86 419.434 C 1869.41 422.488 1862.51 434.975 1862.51 437.36 C 1852.32 449.741 1837.31 464.175 1826.15 476.275 C 1777.91 503.748 1740.51 521.156 1682.7 505.442 C 1674 503.075 1665.51 500.006 1657.3 496.267 C 1651.21 493.517 1637.6 484.605 1630.63 488.175 C 1600.52 503.596 1627.55 524.081 1615.28 537.76 C 1603.84 550.511 1559.81 527.007 1553.62 542.959 C 1554.52 551.135 1563.72 559.525 1555.53 568.048 C 1538.02 586.286 1518.65 604.552 1500.47 622.101 C 1488.65 608.946 1476.99 595.645 1465.49 582.203 C 1475.24 572.144 1516.1 531.673 1519.94 522.285 C 1527.12 518.688 1525.21 511.347 1525.52 504.183 L 1527.47 495.656 C 1543.2 480.921 1550.31 485.02 1549.74 458.621 C 1549.45 445.026 1568.03 447.389 1577.5 448.878 C 1578.32 447.39 1582.07 442.425 1583.25 440.769 C 1574.73 418.468 1563.96 401.772 1559.17 377.037 C 1549.27 325.913 1561.33 287.305 1588.91 245.034 C 1594.41 240.888 1621.77 213.347 1627.62 207.351 z"/><path transform="translate(0,0)" fill="rgb(242,216,171)" d="M 1527.47 495.656 C 1543.2 480.921 1550.31 485.02 1549.74 458.621 C 1549.45 445.026 1568.03 447.389 1577.5 448.878 C 1571.85 460.713 1562.83 461.453 1555.05 471.546 C 1550 478.092 1556.67 487.423 1552.87 492.497 C 1548.66 498.128 1540.05 505.352 1534.86 510.568 L 1525.52 504.183 L 1527.47 495.656 z"/><path transform="translate(0,0)" fill="rgb(12,29,47)" d="M 1709.9 222.987 C 1777.64 215.688 1838.46 264.693 1845.74 332.43 C 1853.02 400.168 1804 460.978 1736.26 468.24 C 1668.55 475.498 1607.77 426.501 1600.49 358.789 C 1593.21 291.078 1642.2 230.283 1709.9 222.987 z"/><path transform="translate(0,0)" fill="rgb(230,233,235)" d="M 1721.38 232.359 C 1784.21 231.249 1836.04 281.261 1837.19 344.085 C 1838.33 406.908 1788.34 458.771 1725.52 459.944 C 1662.65 461.118 1610.74 411.089 1609.6 348.221 C 1608.46 285.353 1658.51 233.471 1721.38 232.359 z"/><path transform="translate(0,0)" fill="rgb(12,29,47)" d="M 1713.45 278.268 C 1727.94 276.73 1741.53 278.701 1753.44 287.827 C 1760.78 293.459 1766.13 301.273 1768.73 310.143 C 1777.34 339.393 1758.25 342.478 1752.07 365.095 C 1749.49 374.57 1765.6 408.459 1758.57 417.955 C 1751.82 422.012 1740.01 420.826 1731.75 420.743 C 1723.22 420.859 1695.55 422.205 1689.26 418.789 C 1677.52 412.426 1698.61 375.617 1694.18 364.091 C 1689.96 353.104 1680.42 343.54 1677.69 333.259 C 1670.36 305.624 1688.53 286.262 1713.45 278.268 z"/><path transform="translate(0,0)" fill="rgb(230,233,235)" d="M 430.467 209.165 C 506.634 154.092 568.144 116.004 656.088 81.2422 C 858.764 -0.977445 1083.01 -13.5596 1293.61 45.4711 C 1319.93 53.0594 1363.84 65.0634 1387.66 76.5432 C 1436.94 100.288 1491.61 122.938 1538.42 150.364 C 1555.4 160.456 1572.05 171.083 1588.36 182.229 C 1598.92 189.41 1616.64 202.975 1627.62 207.351 C 1621.77 213.347 1594.41 240.888 1588.91 245.034 C 1552.42 219.212 1518.25 196.885 1478.73 175.527 C 1293.76 74.5941 1080.26 38.7096 872.461 73.6295 C 724.761 98.338 584.929 157.392 464.23 246.035 C 453.761 235.163 439.49 221.163 429.81 209.914 L 430.467 209.165 z"/><path transform="translate(0,0)" fill="rgb(242,216,171)" d="M 530.187 522.737 C 534.182 520.895 542.264 516.959 545.609 519.565 C 561.991 532.331 584.729 557.967 599.03 572.538 C 595.812 576.066 591.955 580.541 588.588 583.798 C 579.028 573.642 534.266 530.262 530.187 522.737 z"/><path transform="translate(0,0)" fill="rgb(242,216,171)" d="M 1455.56 570.945 C 1466.7 559.044 1477.75 546.752 1489.17 535.143 C 1500.2 523.916 1503.83 515.238 1519.94 522.285 C 1516.1 531.673 1475.24 572.144 1465.49 582.203 L 1455.56 570.945 z"/><path transform="translate(0,0)" fill="rgb(230,233,235)" d="M 1232.23 843.162 C 1244.74 842.513 1255.25 845.761 1266.77 851.36 C 1305 869.951 1376.41 905.722 1373.76 955.156 C 1372.99 969.631 1369.06 989.503 1367.45 1004.46 C 1360.54 992.554 1353.54 980.709 1346.44 968.921 C 1349.24 988.376 1352.76 1015.58 1352.42 1034.96 C 1352.06 1054.73 1345.06 1068.7 1350.57 1090.16 C 1353.23 1100.49 1354.74 1106.7 1360.88 1116.15 C 1367.72 1126.67 1380.85 1136.9 1381.85 1149.93 C 1383.17 1167.06 1372.05 1188.01 1361.6 1200.61 C 1354.51 1209.07 1346.17 1216.4 1336.86 1222.32 C 1331.9 1225.5 1320.9 1231.68 1315.25 1232.61 C 1287.64 1237.14 1255.14 1228.7 1226.97 1231.34 C 1201.44 1233.73 1188.46 1250.22 1173.7 1268.67 C 1183.71 1263.55 1194.34 1257.51 1204.26 1252.1 C 1200.98 1262.91 1198.17 1273.87 1195.86 1284.93 C 1191.88 1304.75 1189.84 1328.54 1184.25 1347.57 C 1183.12 1351.44 1157.69 1372.03 1152.43 1376.68 C 1151.02 1364.17 1148.66 1345.09 1145.73 1333.19 C 1140.4 1353.87 1145.17 1371.77 1125.21 1385.26 C 1086.91 1411.14 1101.91 1356.05 1087.49 1356.11 C 1083.32 1360.78 1088.98 1387.17 1083.91 1394.09 C 1079.02 1400.76 1043.52 1402.43 1038.33 1398.66 C 1033.56 1395.19 1030.87 1365.63 1028.31 1356.87 C 1019.5 1374.57 1022.44 1378.51 1020.69 1396.71 C 1015.82 1402.78 1006.8 1399.53 999.996 1399.85 C 964.506 1401.52 971.143 1378.83 962.09 1352.19 C 959.593 1364.72 958.284 1377.47 955.53 1390 C 940.347 1390.21 930.756 1389.18 920.024 1377.36 C 915.502 1367.46 915.337 1341.66 910.13 1337.81 L 910.858 1338.63 C 910.184 1339.18 909.511 1339.73 908.838 1340.28 C 907.489 1349.18 904.968 1363.19 903.433 1371.61 C 882.553 1360.41 872.176 1358.28 869.877 1332.13 C 867.845 1309.02 862.366 1285.39 858.59 1262.49 C 858.134 1259.72 859.079 1259.16 860.684 1257.5 C 867.948 1261.14 879.996 1269.69 887.154 1274.46 C 870.705 1236.81 840.064 1224.71 800.777 1229.89 C 779.959 1232.64 758.268 1239.29 737.787 1232.42 C 713.996 1224.45 693.596 1200.65 680.899 1179.79 C 676.511 1172.41 675.114 1163.44 675.144 1154.97 C 675.239 1128.15 693.488 1125.06 704.923 1100.8 C 713.726 1082.13 708.775 1083.25 713.448 1068.76 C 714.902 1069.52 725.232 1087.65 727.049 1090.62 C 745.924 1121.54 770.807 1146.71 805.581 1158.69 C 835.771 1169.1 858.487 1167.35 888.462 1157.8 C 899.811 1154.19 907.543 1152.26 918.719 1146.87 C 962.882 1125.6 981.036 1080.58 989.981 1035.08 C 992.49 1022.31 993.743 1008.63 996.856 996.377 C 997.94 992.108 1002.92 987.624 1006.66 985.31 C 1027.58 972.37 1048.92 959.466 1069.84 946.558 L 1202.7 864.685 C 1215.34 856.969 1216.47 850.01 1232.23 843.162 z"/><path transform="translate(0,0)" fill="rgb(12,29,47)" d="M 1221.37 945.307 C 1237.09 943.422 1253.04 945.639 1267.65 951.743 C 1283.56 958.238 1299.89 968.438 1306.79 984.803 C 1298.52 1011.52 1307.08 1039.2 1300.05 1068.22 C 1290.01 1109.69 1269.38 1128.44 1226.25 1132.18 C 1206.2 1133.93 1192.94 1132.7 1173.02 1128.3 C 1155.93 1123.81 1139.72 1116.46 1125.08 1106.56 C 1103.22 1091.65 1088.46 1070.27 1084.18 1043.82 C 1081.8 1029.06 1078.74 1005.4 1087.7 992.587 C 1092.66 985.489 1106.16 981.909 1114.05 978.912 C 1137.5 970.754 1160.93 962.23 1184.64 954.921 C 1196.22 951.351 1209.48 946.99 1221.37 945.307 z"/><path transform="translate(0,0)" fill="rgb(12,29,47)" d="M 1025.58 1089.12 C 1040.07 1088.28 1050.98 1095.94 1057.04 1108.92 C 1070.07 1136.78 1083.81 1168.84 1092.41 1198.26 C 1098.84 1220.24 1086.65 1250.45 1060 1242.68 C 1047.18 1238.94 1034.58 1215.94 1028.98 1204.65 C 1027.32 1204.31 1027.78 1204.06 1026.86 1205.45 C 1018.41 1218.19 1013.51 1236.98 997.85 1242.95 C 984.634 1247.99 967.224 1239.6 963.524 1225.71 C 959.089 1209.07 965.116 1190.94 969.799 1174.91 C 974.81 1157.76 981.925 1140.8 990.187 1125 C 998.557 1109.36 1007.79 1094.5 1025.58 1089.12 z"/><path transform="translate(0,0)" fill="rgb(237,172,48)" d="M 417.758 913.612 C 383.222 879.261 360.336 836.966 358.958 786.914 C 358.698 777.456 361.669 766.935 368.818 760.522 C 381.713 748.956 406.279 743.977 423.336 737.568 C 435.06 733.084 446.628 728.205 458.022 722.939 C 489.639 708.201 520.113 689.894 546.834 667.382 C 583.542 636.456 611.315 597.975 637.988 558.453 C 702.262 463.221 753.337 376.354 861.626 325.599 C 875.902 318.907 902.891 305.835 918.065 306.576 C 922.223 306.779 927.121 308.23 929.851 311.578 C 948.435 334.373 917.558 438.802 969.949 495.089 C 982.277 508.549 998.831 517.397 1016.87 520.169 C 1074.34 528.947 1113.48 479.372 1120.42 427.113 C 1123.45 404.304 1122.03 379.888 1122.88 356.776 C 1123.6 336.937 1119.44 300.268 1151.01 306.917 C 1193.58 318.302 1237.1 345.495 1271.15 372.902 C 1350.68 436.901 1399.77 535.895 1460.93 615.05 C 1516.68 687.215 1589.53 724.714 1674.03 752.714 C 1678.76 754.28 1687.27 760.741 1690.08 765.27 C 1711.95 810.039 1660.65 895.524 1629.41 918.967 C 1623.02 928.126 1608.54 940.179 1599.62 947.733 C 1552.23 987.878 1493.65 1013.05 1433.54 1027.07 C 1419.48 1030.35 1403.96 1034.88 1389.61 1036.21 C 1403.68 1027.64 1424.71 1023.33 1440.45 1017.36 C 1488.25 999.257 1533.98 974.229 1571.85 939.546 C 1606.66 907.654 1649.73 851.583 1650.56 802.431 C 1650.65 797.29 1648.63 790.658 1644.11 787.699 C 1630.53 778.787 1610.68 773.795 1595.45 767.221 C 1559.04 751.505 1523.01 731.239 1491.96 706.463 C 1425.99 653.815 1382.75 578.515 1335.05 510.235 C 1317.45 485.037 1299.9 460.054 1278.49 437.889 C 1261.71 420.522 1201.56 367.38 1177.93 368.755 C 1175.47 368.898 1173.69 369.637 1171.83 371.285 C 1169.91 372.995 1169.37 374.361 1168.88 376.814 C 1167.29 384.695 1166.92 393.063 1166.08 401.074 C 1163.85 422.292 1161.66 443.532 1155.38 464.025 C 1148.08 487.843 1136.14 509.933 1118.77 527.932 C 1095.94 551.601 1064.52 564.336 1031.74 564.903 C 1012.35 565.197 993.145 561.151 975.525 553.062 C 908.723 521.913 898.166 445.559 893.174 380.918 C 892.488 372.027 887.644 365.978 878.018 370 C 762.285 418.356 707.292 546.361 632.357 638.953 C 611.215 665.104 587.041 688.65 560.344 709.097 C 531.225 731.314 499.5 749.888 465.873 764.405 C 449.663 771.33 432.246 777.419 416.359 784.963 C 411.958 787.053 407.428 791.758 405.316 796.16 C 399.265 808.774 410.696 842.144 415.97 854.492 C 443.71 919.441 509.977 970.179 572.732 999.245 C 600.924 1012.3 631.3 1022.77 660.137 1034.68 C 646.233 1033.62 619.888 1027.14 606.043 1023.37 C 529.845 1002.59 472.245 970.386 417.758 913.612 z"/><path transform="translate(0,0)" fill="rgb(230,233,235)" d="M 417.758 913.612 C 383.222 879.261 360.336 836.966 358.958 786.914 C 358.698 777.456 361.669 766.935 368.818 760.522 C 381.713 748.956 406.279 743.977 423.336 737.568 C 435.06 733.084 446.628 728.205 458.022 722.939 C 489.639 708.201 520.113 689.894 546.834 667.382 C 583.542 636.456 611.315 597.975 637.988 558.453 C 702.262 463.221 753.337 376.354 861.626 325.599 C 875.902 318.907 902.891 305.835 918.065 306.576 C 922.223 306.779 927.121 308.23 929.851 311.578 C 948.435 334.373 917.558 438.802 969.949 495.089 C 982.277 508.549 998.831 517.397 1016.87 520.169 C 1074.34 528.947 1113.48 479.372 1120.42 427.113 C 1123.45 404.304 1122.03 379.888 1122.88 356.776 C 1123.6 336.937 1119.44 300.268 1151.01 306.917 C 1193.58 318.302 1237.1 345.495 1271.15 372.902 C 1350.68 436.901 1399.77 535.895 1460.93 615.05 C 1516.68 687.215 1589.53 724.714 1674.03 752.714 C 1678.76 754.28 1687.27 760.741 1690.08 765.27 C 1711.95 810.039 1660.65 895.524 1629.41 918.967 C 1630.51 913.919 1642.44 899.251 1646.29 893.514 C 1667.66 861.655 1687.47 821.392 1682.54 781.974 C 1681.63 774.704 1677.81 767.842 1671.91 763.892 C 1657.51 754.248 1636.46 747.255 1620.23 740.157 C 1599.68 731.166 1582.69 724.099 1563.26 713.289 C 1483.19 670.153 1439.07 601.789 1389.96 528.191 C 1330.92 442.556 1263.77 353.731 1159.55 322.422 C 1153.08 320.479 1133.64 317.714 1132.41 327.992 C 1125.87 382.696 1138.07 437.217 1106.11 486.591 C 1067.18 546.728 980.93 542.293 948.45 478.796 C 928.949 443.459 932.298 402.052 929.528 363.22 C 927.605 343.594 935.847 312.216 903.512 321.894 C 872.364 331.218 843.999 345.547 817.048 363.523 C 698.437 442.636 651.917 591.097 542.611 679.394 C 494.921 717.918 442.465 738.925 386.127 761.346 C 381.571 763.159 377.415 767.905 374.988 772.071 C 362.013 807.354 380.702 849.892 398.186 880.369 C 402.089 887.242 416.766 908.327 417.758 913.612 z"/><path transform="translate(0,0)" fill="rgb(230,233,235)" d="M 1225.89 1298.02 C 1231.29 1281.7 1231.19 1264.39 1251.29 1257.86 C 1256.91 1256.28 1274.57 1255.56 1276.65 1262.64 C 1277.4 1265.22 1275.89 1271.75 1275.09 1274.56 C 1264.93 1310.11 1261.62 1350.12 1260.31 1386.98 C 1258.85 1428.06 1243.88 1437.42 1215.64 1463.75 C 1202.81 1475.63 1190.08 1487.6 1177.42 1499.66 C 1161.53 1514.8 1136.07 1541.95 1119.1 1553.92 C 1112 1558.93 1102.77 1562.58 1094.29 1564.39 C 1076.89 1568.11 984.095 1567.93 965.513 1564.61 C 955.37 1562.88 945.709 1559.01 937.17 1553.27 C 927.512 1546.81 916.814 1535.7 908.18 1527.37 L 868.096 1488.69 C 852.089 1473.35 835.785 1458.3 820.008 1442.73 C 810.603 1433.45 803.092 1420.09 800.942 1406.95 C 793.085 1358.91 792.276 1309.4 782.748 1261.58 C 786.652 1260 791.901 1258.48 795.999 1257.15 C 803.63 1256.78 813.303 1257.17 818.603 1263.76 C 840.413 1290.89 833.404 1343.49 848.137 1374.56 C 855.69 1390.48 866.356 1400.62 878.788 1410.74 C 877.718 1403.12 871.8 1383.04 873.933 1377.95 L 876.257 1377.52 C 882.495 1380 898.288 1391.73 903.908 1396.33 C 904.025 1396.61 904.142 1396.89 904.259 1397.17 L 904.82 1398.58 C 911.979 1416.29 907.242 1423.58 920.343 1437.92 C 919.104 1426.27 918.219 1414.58 917.688 1402.87 C 924.695 1405.2 947.111 1411.44 951.984 1414.25 C 958.98 1418.29 960.831 1444.28 968.542 1451.97 L 970.085 1450.8 C 971.352 1445.17 971.064 1425.64 971.059 1418.99 C 983.959 1421.17 1006.27 1422.45 1019.57 1423.59 C 1021.78 1436.26 1023.65 1449.5 1025.63 1462.25 C 1042.83 1451.87 1030.69 1441.65 1036.27 1427.92 C 1039.58 1419.75 1077.2 1418.44 1084.21 1422.47 C 1086.62 1428.85 1080.64 1446.8 1086.67 1450.5 C 1092.16 1447.23 1096.19 1426.34 1099.37 1419.92 C 1103.73 1411.09 1128.05 1405.81 1137.97 1402.34 C 1137.09 1410.56 1134.84 1425.41 1138.18 1432.83 L 1139.82 1433.34 C 1152.06 1422.78 1132.4 1401.84 1186.01 1375.57 C 1183.21 1386.45 1181.21 1397.16 1179.11 1408.17 C 1207 1384.76 1211.09 1377.26 1216.62 1341 C 1218.41 1329.21 1223.13 1309.91 1225.89 1298.02 z"/><path transform="translate(0,0)" fill="rgb(230,233,235)" d="M 1011.55 810.427 C 1022.47 809.399 1040.85 810.24 1051.98 810.489 C 1101.22 811.592 1145.59 819.48 1193.39 830.05 C 1152.1 856.367 1110.46 882.131 1068.49 907.335 C 1044.37 922.112 1020.37 937.096 995.905 951.29 C 981.278 959.776 968.763 953.368 953.205 949.651 L 892.5 935.144 C 875.27 931.034 855.714 925.668 838.25 924.844 L 836.994 924.778 C 784.735 922.371 727.316 949.934 689.107 984.629 C 670.937 940.216 692.891 916.129 726.885 890.414 C 802.733 833.038 918.395 813.895 1011.55 810.427 z"/><path transform="translate(0,0)" fill="rgb(237,172,48)" d="M 1480.35 1290.11 C 1484.94 1293.54 1499.79 1308.67 1504.58 1313.37 L 1553.01 1360.98 L 1652.41 1458.83 C 1670.46 1476.55 1692.11 1495.76 1707.01 1515.31 C 1716.31 1527.52 1693.83 1552.57 1682.74 1557.84 C 1673.61 1562.18 1670.14 1562.85 1660.69 1560.27 C 1646.02 1555.45 1587.72 1495.32 1571.96 1480.1 L 1430.48 1344.03 C 1446.48 1326.08 1463.9 1307.71 1480.35 1290.11 z"/><path transform="translate(0,0)" fill="rgb(237,172,48)" d="M 568.764 1293 C 572.957 1296.23 582.576 1305.72 586.688 1309.62 L 620.62 1341.89 L 474 1485.74 L 432.851 1526.07 C 421.83 1536.85 406.884 1553.17 393.997 1560.32 C 378.603 1565.75 368.382 1560.25 358.142 1549.25 C 345.315 1535.48 336.622 1524.09 351.745 1508.08 C 360.451 1498.86 369.381 1489.94 378.4 1480.99 L 429.037 1431.01 L 568.764 1293 z"/><path transform="translate(0,0)" fill="rgb(237,172,48)" d="M 1491.94 1423.62 C 1496.91 1425.66 1603.51 1531.4 1615.25 1542.84 C 1601.23 1556.76 1521.37 1638.94 1513.87 1640.77 C 1505.56 1637.42 1494.16 1622.22 1487.26 1615.31 C 1471.9 1599.91 1470.01 1599.05 1485.44 1583.89 C 1489.35 1579.81 1497.24 1569.98 1503.15 1570.08 C 1511.7 1570.93 1528.37 1555.83 1524.39 1547.19 C 1518.65 1534.73 1498.8 1517.36 1487.54 1509.79 C 1480.15 1504.81 1463.28 1518.03 1460.75 1524.82 C 1460.71 1528.69 1461.5 1529.44 1463.49 1533.04 L 1464.14 1534.19 C 1455.12 1544.84 1444.21 1556.32 1434.75 1566.83 L 1392.68 1520.82 C 1425.13 1488.34 1459.07 1455.87 1491.94 1423.62 z"/><path transform="translate(0,0)" fill="rgb(237,172,48)" d="M 1007.52 742.426 C 1015.32 741.325 1029.81 741.8 1038 741.916 C 1118.4 743.062 1200.24 764.415 1270.62 803.361 C 1297.17 818.051 1321.66 839.175 1344.33 858.976 C 1329.93 858.362 1319.32 849.906 1306.66 843.575 C 1292.31 836.395 1278.04 829.293 1262.89 823.887 C 1191.36 798.477 1116.15 784.964 1040.25 783.888 C 961.649 781.905 871.944 792.904 799.371 823.609 C 770.122 835.984 737.42 853.689 708.472 868.19 C 711.607 864.289 714.85 860.475 718.197 856.753 C 786.637 781.307 908.697 747.429 1007.52 742.426 z"/><path transform="translate(0,0)" fill="rgb(237,172,48)" d="M 562.108 1420.87 C 566.966 1424.52 587.472 1446.58 593.03 1452.39 L 658.496 1520.89 C 644.865 1534.8 630.049 1551.51 616.705 1565.86 L 585.439 1536.04 L 586.158 1534.64 C 588.502 1530.06 590.816 1526.92 589.203 1521.98 C 567.247 1495.38 555.973 1515.25 538.082 1531.92 C 533.684 1536.02 527.467 1542.67 525.989 1548.49 C 523.679 1557.6 528.853 1569.88 538.888 1571.39 C 541.714 1571.84 545.623 1568.65 547.926 1567.03 L 561.616 1581.34 C 566.733 1587.18 572.993 1593.48 578.397 1599.17 L 537.498 1642.13 L 440.625 1541.88 L 562.108 1420.87 z"/><path transform="translate(0,0)" fill="rgb(237,172,48)" d="M 578.074 1218.24 C 584.675 1217.53 590.456 1217.31 596.828 1219.71 C 607.554 1223.74 689.337 1303.15 693.723 1313.87 C 696.219 1319.98 695.178 1328.13 692.521 1333.98 C 688.676 1342.45 681.584 1348.28 672.984 1351.48 C 668.279 1352.96 663.34 1353.54 658.546 1352.04 C 655.225 1351.01 651.393 1349.42 648.573 1347.34 C 636.275 1338.25 564.121 1268.22 558.003 1256.53 C 555.19 1251.16 555.401 1243.36 557.444 1237.79 C 561.041 1227.98 568.986 1222.38 578.074 1218.24 z"/><path transform="translate(0,0)" fill="rgb(237,172,48)" d="M 1458.44 1217.07 C 1464.41 1216.83 1470.74 1217.08 1475.62 1220.51 C 1514.34 1246.93 1473.66 1276.73 1452.46 1297.43 C 1439.05 1310.52 1402.71 1350.58 1387.38 1354.01 C 1382.5 1353.85 1377.62 1353.52 1373.03 1351.69 C 1365.38 1348.64 1358.69 1342.45 1355.53 1334.8 C 1352.65 1327.82 1352.95 1320.44 1356.12 1313.62 C 1360.95 1303.22 1433.4 1233.7 1446.5 1223.4 C 1450.22 1220.48 1454.08 1218.77 1458.44 1217.07 z"/><path transform="translate(0,0)" fill="rgb(230,233,235)" d="M 805.316 968.42 C 825.78 966.592 873.924 970.248 893.731 971.91 C 887.102 973.027 879.764 973.973 873.061 974.432 C 833.604 977.133 797.212 983.33 758.644 991.507 C 731.935 998.922 728.703 1010.75 726.631 1036.3 C 720.67 1028.86 715 1019.03 714.308 1009.47 C 711.378 969.04 779.717 969.716 805.316 968.42 z"/><path transform="translate(0,0)" fill="rgb(237,172,48)" d="M 634.072 1230.32 C 641.408 1223.02 653.325 1210.2 660.832 1204.13 C 663.344 1208.13 665.906 1212.1 668.518 1216.03 C 681.432 1230.55 694.476 1244.96 707.649 1259.24 C 700.332 1266.23 692.96 1273.16 685.531 1280.03 L 644.529 1240.18 C 641.313 1236.8 637.532 1233.49 634.072 1230.32 z"/><path transform="translate(0,0)" fill="rgb(242,216,171)" d="M 634.072 1230.32 C 641.408 1223.02 653.325 1210.2 660.832 1204.13 C 663.344 1208.13 665.906 1212.1 668.518 1216.03 C 660.396 1223.96 652.399 1232 644.529 1240.18 C 641.313 1236.8 637.532 1233.49 634.072 1230.32 z"/><path transform="translate(0,0)" fill="rgb(237,172,48)" d="M 1385.27 1221.01 L 1393.87 1208.02 C 1400.81 1215.8 1407.61 1223.72 1414.26 1231.75 L 1405.01 1240.42 C 1391.41 1253.48 1377.93 1266.66 1364.56 1279.95 L 1341.49 1258.2 C 1360.5 1247.24 1371.22 1237.97 1385.27 1221.01 z"/><path transform="translate(0,0)" fill="rgb(242,216,171)" d="M 1385.27 1221.01 L 1393.87 1208.02 C 1400.81 1215.8 1407.61 1223.72 1414.26 1231.75 L 1405.01 1240.42 C 1398.66 1233.78 1391.9 1227.39 1385.27 1221.01 z"/><path transform="translate(0,0)" fill="rgb(237,172,48)" d="M 918.607 136.428 C 939.242 132.961 943.097 158.077 921.263 162.36 C 906.177 165.319 891.051 167.083 875.791 168.958 C 866.136 171.166 858.012 168.219 855.688 158.27 C 851.324 139.592 906.47 138.072 918.607 136.428 z"/><path transform="translate(0,0)" fill="rgb(237,172,48)" d="M 1131.73 135.169 C 1144.23 136.736 1156.6 138.304 1169.23 139.954 C 1177.5 141.034 1195.08 142.615 1198.06 152.406 C 1201.14 162.54 1195.1 166.381 1186.27 168.931 C 1175.55 167.294 1165.4 166.418 1154.01 164.786 C 1142.7 163.164 1111.61 162.069 1120.09 142.502 C 1122.28 137.457 1126.64 136.287 1131.73 135.169 z"/><path transform="translate(0,0)" fill="rgb(237,172,48)" d="M 996.844 129.048 C 1014.68 128.713 1033.4 128.025 1051.15 128.826 C 1067.91 129.583 1073.74 144.934 1057.4 154.449 C 1042.63 156.246 1016.65 155.227 1001.38 154.723 C 986.693 154.239 979.797 138.822 996.844 129.048 z"/><path transform="translate(0,0)" fill="rgb(237,172,48)" d="M 1257.31 159.916 C 1269.02 160.722 1280.93 167.008 1291.38 168.495 C 1306.27 170.613 1342.36 186.973 1312.88 201.065 C 1310.44 200.853 1308.02 200.461 1305.64 199.89 C 1293.59 197.069 1255.79 188.508 1248.04 177.493 C 1243.3 170.765 1250 162.944 1257.31 159.916 z"/><path transform="translate(0,0)" fill="rgb(237,172,48)" d="M 934.677 1811.05 C 951.417 1810.43 970.322 1812.57 987.064 1814.04 C 1000.99 1815.27 1010.07 1832.43 993.724 1840.02 C 989.772 1840.55 976.917 1840.27 972.423 1839.54 C 960.227 1837.56 922.049 1841.88 926.326 1820.52 C 927.284 1815.74 930.857 1813.39 934.677 1811.05 z"/><path transform="translate(0,0)" fill="rgb(237,172,48)" d="M 794.795 161.258 C 803.196 160.649 810.17 170.291 808.049 175.869 C 802.735 189.844 759.957 198.351 746.353 202.55 C 735.916 200.936 728.389 192.312 734.015 184.345 C 741.525 173.709 782.674 164.24 794.795 161.258 z"/><path transform="translate(0,0)" fill="rgb(237,172,48)" d="M 1110.38 1811.45 C 1118.73 1809.79 1126.9 1813.97 1127.24 1823.13 C 1127.38 1826.54 1126.15 1829.87 1123.83 1832.38 C 1116.64 1840.07 1079.63 1839.77 1067.27 1840.52 C 1047.86 1843.98 1044.48 1816.69 1064.76 1814.54 C 1079.95 1812.92 1095.16 1812.6 1110.38 1811.45 z"/><path transform="translate(0,0)" fill="rgb(237,172,48)" d="M 675.609 202.863 C 692.596 203.445 694.268 224.338 673.988 231.836 C 659.906 237.042 644.458 246.083 629.493 251.236 C 620.588 250.342 612.98 242.457 616.656 235.649 C 623.527 222.926 662.753 208.637 675.609 202.863 z"/><path transform="translate(0,0)" fill="rgb(237,172,48)" d="M 1372.17 202.037 C 1384.5 201.002 1420.93 220.869 1432.98 227.844 C 1440.71 232.317 1434.91 243.846 1429.18 248.936 C 1428.89 248.986 1428.61 249.051 1428.32 249.087 C 1418.45 250.302 1379.23 231.482 1371.1 224.912 C 1367.83 222.271 1364.64 218.245 1364.65 213.832 C 1364.67 208.731 1368.5 205.01 1372.17 202.037 z"/><path transform="translate(0,0)" fill="rgb(237,172,48)" d="M 813.775 1789.06 C 826.639 1788.34 906.291 1798.28 873.196 1824.82 C 862.414 1825.7 847.829 1820.32 836.857 1818.96 C 821.801 1817.09 790.934 1808.23 813.775 1789.06 z"/><path transform="translate(0,0)" fill="rgb(237,172,48)" d="M 1231.5 1790.22 C 1235.37 1789.84 1242.36 1789.2 1245.2 1792.83 C 1264.06 1817.01 1208.22 1821.64 1192.7 1825.51 C 1190.38 1825.9 1183.37 1826.47 1181.74 1825.19 C 1150.68 1801.05 1218.58 1792.97 1231.5 1790.22 z"/><path transform="translate(0,0)" fill="rgb(237,172,48)" d="M 1793.52 559.76 C 1808.61 563.479 1819.89 597.943 1827.37 610.887 C 1833.32 621.189 1828.93 628.051 1818.31 632.239 C 1811.69 631.163 1807.68 626.904 1804.72 621.167 C 1797.79 607.751 1781.4 584.016 1781.98 569.212 C 1784.18 564.322 1788.89 562.088 1793.52 559.76 z"/><path transform="translate(0,0)" fill="rgb(237,172,48)" d="M 699.067 1750.95 C 710.647 1751.1 736.14 1762.88 747.998 1766.94 C 761.716 1771.64 768.316 1784.26 752.933 1794.03 C 746.909 1794.21 740.829 1791.76 735.088 1789.83 C 722.818 1785.7 667.59 1771.39 699.067 1750.95 z"/><path transform="translate(0,0)" fill="rgb(237,172,48)" d="M 255.166 559.805 C 280.803 563.08 265.292 585.81 257.973 598.922 C 252.422 608.867 245.363 626.358 235.789 631.819 C 209.484 630.846 227.424 602.058 233.977 590.192 C 239.702 579.823 244.704 565.617 255.166 559.805 z"/><path transform="translate(0,0)" fill="rgb(237,172,48)" d="M 1897.11 1034.99 C 1909.87 1034.5 1915.53 1041.03 1913.19 1053.26 C 1910.39 1067.94 1913.43 1100.91 1900.54 1109 C 1893.97 1109.17 1884.58 1109.04 1883.97 1100.5 C 1882.74 1083.43 1886.61 1064.68 1888.46 1047.65 C 1889.32 1039.78 1891.26 1039.09 1897.11 1034.99 z"/><path transform="translate(0,0)" fill="rgb(237,172,48)" d="M 1898.27 911.982 C 1900.18 912.183 1902.82 912.454 1904.62 912.997 C 1907.66 913.909 1910.14 916.101 1911.42 918.997 C 1913.2 923.115 1916.27 973.541 1913.58 981.613 C 1912.53 984.737 1908.15 986.829 1904.99 988.099 C 1886.04 987.43 1889.45 968.445 1888.81 952.805 C 1888.23 938.505 1883.08 917.938 1898.27 911.982 z"/><path transform="translate(0,0)" fill="rgb(237,172,48)" d="M 199.752 673.005 C 231.081 671.473 210.086 703.168 205.89 719.591 C 203.675 728.258 199.172 740.999 191.498 745.629 C 170.502 748.009 175.4 726.82 180.667 714.83 C 185.88 702.962 189.657 681.004 199.752 673.005 z"/><path transform="translate(0,0)" fill="rgb(237,172,48)" d="M 1349.75 1752.07 C 1368.14 1751.06 1366.52 1763.11 1359.94 1775.04 C 1344.37 1782.22 1325.67 1788.55 1309.46 1794.18 C 1298.26 1794.25 1290.19 1787.18 1294.34 1778.26 C 1299.51 1767.19 1338.51 1756.42 1349.75 1752.07 z"/><path transform="translate(0,0)" fill="rgb(237,172,48)" d="M 165.424 1154.12 C 181.33 1157.83 181.976 1181.38 185.606 1195.63 C 189.132 1209.47 194.744 1224.15 177.447 1228.78 C 174.103 1227.88 169.157 1226.07 167.565 1223.13 C 162.393 1213.57 152.706 1170.85 154.12 1161.95 C 157.034 1156.86 159.809 1155.73 165.424 1154.12 z"/><path transform="translate(0,0)" fill="rgb(237,172,48)" d="M 1843.13 672.965 C 1863.1 672.513 1864.05 704.42 1871.36 719.723 C 1876.38 730.253 1877.62 739.422 1866.03 745.405 C 1850.29 746.018 1846.52 726.281 1842.55 713.361 C 1837.73 697.648 1826.28 682.265 1843.13 672.965 z"/><path transform="translate(0,0)" fill="rgb(237,172,48)" d="M 144.639 913.013 C 145.719 912.978 148.692 912.927 149.7 912.913 C 170.52 912.616 159.034 959.463 159.996 972.01 C 160.522 978.869 156.89 984.209 152.218 987.916 C 132.672 988.679 134.135 975.932 135.474 960.244 C 136.633 946.657 133.766 921.979 144.639 913.013 z"/><path transform="translate(0,0)" fill="rgb(237,172,48)" d="M 144.674 1035.02 C 149.057 1034.99 158.026 1035 159.386 1040.07 C 162.938 1053.32 167.674 1089.85 165.644 1102.37 C 163.374 1106.15 161.637 1106.67 157.66 1109 C 147.695 1109.31 142.962 1107.25 141.745 1096.47 C 139.783 1079.1 136.678 1060.65 137.193 1043.18 C 137.292 1039.84 142.191 1036.63 144.674 1035.02 z"/><path transform="translate(0,0)" fill="rgb(237,172,48)" d="M 1877.2 792.071 C 1881.09 791.92 1889.77 791.104 1891.98 795.583 C 1897.81 808.245 1899.56 823.736 1901.98 837.546 C 1904.02 849.139 1907.84 858.411 1896.5 865.093 C 1887.82 866.904 1882.27 863.515 1880.26 854.882 C 1876.22 837.566 1872.21 819.49 1870.38 801.824 C 1870 798.126 1874.71 794.121 1877.2 792.071 z"/><path transform="translate(0,0)" fill="rgb(237,172,48)" d="M 1458.53 1701.98 C 1477.22 1700.43 1480.18 1718.95 1464.45 1727.38 C 1450.48 1734.88 1436.45 1741.94 1422.04 1748.58 C 1403.63 1750.01 1399.47 1731.72 1417.26 1722.84 C 1430.88 1716.05 1444.98 1708.96 1458.53 1701.98 z"/><path transform="translate(0,0)" fill="rgb(237,172,48)" d="M 196.789 1271.95 C 201.303 1272.03 207.383 1271.8 209.806 1276.54 C 218.216 1292.98 225.734 1311.67 230.745 1329.42 C 232.771 1336.6 226.967 1339.7 221.754 1342.67 C 204.401 1343.45 199.14 1312.26 192.436 1298.94 C 186.518 1287.18 184.98 1279.33 196.789 1271.95 z"/><path transform="translate(0,0)" fill="rgb(237,172,48)" d="M 590.02 1700.93 C 598.452 1700.83 671.765 1728.26 638.932 1749.19 C 633.58 1749.07 621.768 1743.77 617.098 1740.66 C 603.483 1731.6 562.257 1721.36 590.02 1700.93 z"/><path transform="translate(0,0)" fill="rgb(237,172,48)" d="M 164.712 792.011 C 185.784 791.97 180.347 804.532 178.18 820.561 C 176.944 829.704 174.474 839.257 172.633 848.347 C 170.961 856.599 169.964 861.075 162.703 865.617 C 134.574 868.956 153.702 823.933 154.771 809.662 C 155.301 802.595 158.525 795.902 164.712 792.011 z"/><path transform="translate(0,0)" fill="rgb(237,172,48)" d="M 1884.83 1153.96 C 1886.7 1154.35 1888.52 1154.95 1890.25 1155.75 C 1893.73 1157.34 1894.55 1158.99 1895.77 1162.28 C 1895.24 1172.88 1886.87 1213.09 1882.02 1224.46 C 1880.81 1227.29 1875.26 1228.12 1872.06 1228.55 C 1869.32 1227.52 1861.83 1224.31 1861.49 1221.38 C 1859.71 1206.4 1868.52 1177.7 1872.49 1162.99 C 1873.9 1157.75 1881.81 1154.94 1884.83 1153.96 z"/><path transform="translate(0,0)" fill="rgb(237,172,48)" d="M 1845.9 1272 C 1873.62 1270.95 1859.35 1296.04 1853.27 1310.48 C 1849.02 1320.58 1844.42 1336.37 1835.43 1342.59 C 1815.79 1344.89 1818.72 1325.14 1824.78 1313.58 C 1831.18 1301.37 1835.17 1280.58 1845.9 1272 z"/><path transform="translate(0,0)" fill="rgb(237,172,48)" d="M 249.276 1383.98 C 254.386 1383.91 258.567 1384.09 261.804 1388.58 C 268.232 1397.5 275.144 1407.45 280.456 1417.06 C 287.893 1430.51 297.595 1440.05 280.092 1449.73 C 271.481 1450.31 266.853 1443.56 262.655 1436.8 C 255.559 1425.38 247.342 1413.4 241.77 1401.2 C 237.762 1392.42 242.21 1388.55 249.276 1383.98 z"/><path transform="translate(0,0)" fill="rgb(237,172,48)" d="M 1795.87 1382.76 C 1804.78 1384.3 1816.07 1389.53 1810.21 1399.97 C 1804.87 1409.48 1784.99 1445.58 1776.26 1448.99 C 1749.88 1450.13 1765.26 1426 1772.98 1414.53 C 1778.58 1406.18 1787.93 1387.66 1795.87 1382.76 z"/><path transform="translate(0,0)" fill="rgb(237,172,48)" d="M 1483.02 259.896 C 1495.04 260.015 1525.1 282.309 1535 290.732 C 1542.11 296.782 1532.28 306.275 1527.17 309.626 C 1519.44 309.95 1511.58 304.565 1505.27 300.036 C 1492.9 291.162 1458.3 276.604 1483.02 259.896 z"/><path transform="translate(0,0)" fill="rgb(237,172,48)" d="M 564.199 260.915 C 572.695 260.406 582.631 266.753 579.188 274.082 C 573.323 286.565 543.652 303.435 532.57 310.815 C 526.94 311.464 522.994 310.202 519.453 305.635 C 507.577 290.319 554.178 267.189 564.199 260.915 z"/><path transform="translate(0,0)" fill="rgb(237,172,48)" d="M 1560.39 1639.94 C 1560.52 1639.97 1560.66 1640 1560.79 1640.03 C 1575.59 1648.33 1577.81 1657.6 1562.19 1667.63 C 1550.34 1675.24 1538.35 1684.16 1525.85 1690.64 C 1505.62 1688.99 1506.99 1674.25 1521.61 1664.7 C 1534.45 1656.31 1547.42 1648.08 1560.39 1639.94 z"/><path transform="translate(0,0)" fill="rgb(237,172,48)" d="M 491.173 1639.53 C 497.555 1641.41 536.973 1665.58 540.72 1672.84 C 545.235 1681.59 539.864 1687.52 530.39 1691.12 C 517.48 1684.78 489.491 1665.35 476.501 1656.76 L 491.173 1639.53 z"/></svg>